<svg width="36" height="36" viewBox="0 0 36 36" fill="none" xmlns="http://www.w3.org/2000/svg">
<path d="M26.9191 17.1141L11.0707 4.73558C11.0293 4.70297 10.9795 4.68271 10.9271 4.67712C10.8747 4.67153 10.8218 4.68083 10.7744 4.70396C10.7271 4.72709 10.6872 4.76311 10.6594 4.80788C10.6316 4.85265 10.6169 4.90436 10.6172 4.95706V7.67464C10.6172 7.84691 10.6981 8.01214 10.8316 8.11761L23.4879 18L10.8316 27.8825C10.6945 27.9879 10.6172 28.1532 10.6172 28.3254V31.043C10.6172 31.2785 10.8879 31.4086 11.0707 31.2645L26.9191 18.886C27.0538 18.7809 27.1628 18.6465 27.2378 18.493C27.3127 18.3395 27.3517 18.1709 27.3517 18C27.3517 17.8292 27.3127 17.6606 27.2378 17.5071C27.1628 17.3536 27.0538 17.2192 26.9191 17.1141Z" fill="black"/>
</svg>
