<svg width="51" height="51" viewBox="0 0 51 51" fill="none" xmlns="http://www.w3.org/2000/svg">
<path d="M32.4009 34.2338L35.9709 30.6638C36.4518 30.1889 37.0601 29.8639 37.7221 29.7281C38.3841 29.5923 39.0713 29.6516 39.7003 29.8988L44.0512 31.636C44.6868 31.894 45.2318 32.3344 45.6176 32.9016C46.0033 33.4688 46.2125 34.1376 46.2187 34.8235V42.7923C46.215 43.2589 46.1169 43.7199 45.9304 44.1476C45.7438 44.5753 45.4726 44.9609 45.1331 45.281C44.7936 45.6011 44.3928 45.8493 43.9549 46.0104C43.517 46.1716 43.051 46.2425 42.585 46.2188C12.0965 44.3223 5.94467 18.5035 4.78123 8.62225C4.72723 8.13701 4.77657 7.64584 4.92602 7.18104C5.07548 6.71624 5.32165 6.28835 5.64834 5.92553C5.97504 5.5627 6.37485 5.27315 6.82149 5.07594C7.26812 4.87873 7.75145 4.77832 8.23967 4.78132H15.9375C16.6244 4.78335 17.295 4.99084 17.863 5.37711C18.4311 5.76337 18.8706 6.31074 19.125 6.94882L20.8622 11.2998C21.1176 11.9262 21.1827 12.614 21.0495 13.2773C20.9163 13.9406 20.5906 14.5499 20.1131 15.0291L16.5431 18.5991C16.5431 18.5991 18.599 32.5126 32.4009 34.2338Z" fill="#F7F8FC"/>
</svg>
