<svg width="24" height="26" viewBox="0 0 24 26" fill="none" xmlns="http://www.w3.org/2000/svg">
<path fill-rule="evenodd" clip-rule="evenodd" d="M8 7.79167C8 6.6866 8.42143 5.62679 9.17157 4.84539C9.92172 4.06399 10.9391 3.625 12 3.625C13.0609 3.625 14.0783 4.06399 14.8284 4.84539C15.5786 5.62679 16 6.6866 16 7.79167C16 8.89674 15.5786 9.95654 14.8284 10.7379C14.0783 11.5193 13.0609 11.9583 12 11.9583C10.9391 11.9583 9.92172 11.5193 9.17157 10.7379C8.42143 9.95654 8 8.89674 8 7.79167ZM8 14.0417C6.67392 14.0417 5.40215 14.5904 4.46447 15.5672C3.52678 16.5439 3 17.8687 3 19.25C3 20.0788 3.31607 20.8737 3.87868 21.4597C4.44129 22.0458 5.20435 22.375 6 22.375H18C18.7956 22.375 19.5587 22.0458 20.1213 21.4597C20.6839 20.8737 21 20.0788 21 19.25C21 17.8687 20.4732 16.5439 19.5355 15.5672C18.5979 14.5904 17.3261 14.0417 16 14.0417H8Z" fill="black"/>
</svg>
