<svg width="18" height="18" viewBox="0 0 18 18" fill="none" xmlns="http://www.w3.org/2000/svg">
<path d="M16.0575 8.5575L9.435 1.935C9.1575 1.6575 8.775 1.5 8.3775 1.5H3C2.175 1.5 1.5 2.175 1.5 3V8.3775C1.5 8.775 1.6575 9.1575 1.9425 9.435L8.565 16.0575C9.15 16.6425 10.1025 16.6425 10.6875 16.0575L16.065 10.68C16.65 10.095 16.65 9.15 16.0575 8.5575ZM9.6225 15L3 8.3775V3H8.3775L15 9.6225L9.6225 15Z" fill="black"/>
<path d="M4.875 6C5.49632 6 6 5.49632 6 4.875C6 4.25368 5.49632 3.75 4.875 3.75C4.25368 3.75 3.75 4.25368 3.75 4.875C3.75 5.49632 4.25368 6 4.875 6Z" fill="black"/>
</svg>
